PathFileType  4	(X/Y/Z) D:/Data/Berkelmans/SUB01/trc/slow_skatebelt
DataRate	CameraRate	NumFrames	NumMarkers	Units	OrigDataRate	OrigDataStartFrame	OrigNumFrames
100.0	100.0	4	31	m	100.0	501	800
Frame#	Time	LCAL			RCAL			C7			LSHO			RTIB2			RFEM2			LFEM2			RTIB3			RFEM1			LSIPS			RTIB1			LTIB2			RFEM3			RSHO			RKNEE_med			LKNEE_lat			RKNEE_lat			LMTP5			RMTP5			RSIAS			RSIPS			LSIAS			LKNEE_med			LANK_lat			LANK_med			RANK_lat			RANK_med			LTIB3			LTIB1			LFEM3			LFEM1			
		X1	Y1	Z1	X2	Y2	Z2	X3	Y3	Z3	X4	Y4	Z4	X5	Y5	Z5	X6	Y6	Z6	X7	Y7	Z7	X8	Y8	Z8	X9	Y9	Z9	X10	Y10	Z10	X11	Y11	Z11	X12	Y12	Z12	X13	Y13	Z13	X14	Y14	Z14	X15	Y15	Z15	X16	Y16	Z16	X17	Y17	Z17	X18	Y18	Z18	X19	Y19	Z19	X20	Y20	Z20	X21	Y21	Z21	X22	Y22	Z22	X23	Y23	Z23	X24	Y24	Z24	X25	Y25	Z25	X26	Y26	Z26	X27	Y27	Z27	X28	Y28	Z28	X29	Y29	Z29	X30	Y30	Z30	X31	Y31	Z31	

501	2.0050000	0.0325866	0.0638003	-0.0244763	-0.2951727	0.0623320	0.1185508	-0.2429803	1.3903057	0.0354249	-0.1634908	1.4371158	-0.1010405	-0.2160589	0.3208595	0.2248851	-0.1789676	0.5800911	0.2449970	-0.1048387	0.5990864	-0.0950834	-0.2696872	0.3337877	0.1963518	-0.2151736	0.6814359	0.2534123	-0.2361826	1.0363151	0.0117144	-0.2290326	0.3891219	0.2266087	-0.0286565	0.3440008	-0.1041919	-0.2258404	0.6009345	0.2153801	-0.1461815	1.4066186	0.2659575	-0.1342975	0.5085373	0.1165309	0.0010797	0.4986314	-0.0788752	-0.1302987	0.4893136	0.2065666	0.1819746	0.0834477	-0.1043358	-0.1332023	0.0464972	0.1875365	-0.0352090	0.9818032	0.1853530	-0.2320724	1.0317759	0.1261543	-0.0442780	0.9816939	-0.0411239	-0.0013980	0.5044255	0.0175012	0.0723579	0.1135293	-0.0809031	0.0971593	0.1303555	-0.0034605	-0.2320941	0.0994593	0.1668858	-0.2194722	0.1141947	0.0856764	-0.0708198	0.3416684	-0.0673529	-0.0577905	0.4020995	-0.0936123	-0.1506320	0.5996698	-0.0441207	-0.1720264	0.6769997	-0.0850128
502	2.0150000	0.0337241	0.0620156	-0.0216208	-0.3010871	0.0624527	0.1186980	-0.2427906	1.3888594	0.0340277	-0.1631966	1.4359710	-0.1022048	-0.2211667	0.3213160	0.2249117	-0.1820086	0.5804998	0.2446252	-0.1063863	0.5990692	-0.0957894	-0.2747628	0.3343337	0.1959895	-0.2168342	0.6822553	0.2525553	-0.2350827	1.0350878	0.0101165	-0.2339389	0.3895990	0.2264409	-0.0282195	0.3407132	-0.1019897	-0.2284758	0.6019602	0.2146965	-0.1465037	1.4052913	0.2648086	-0.1381052	0.5080013	0.1163285	0.0006219	0.4970683	-0.0789911	-0.1343813	0.4891870	0.2066049	0.1819468	0.0821967	-0.1030366	-0.1388679	0.0464311	0.1875722	-0.0342788	0.9810336	0.1843471	-0.2313418	1.0307055	0.1246823	-0.0430175	0.9805515	-0.0421263	-0.0016268	0.5035671	0.0177241	0.0720792	0.1118505	-0.0792552	0.0977335	0.1296543	-0.0019796	-0.2377162	0.0993548	0.1669946	-0.2253947	0.1143810	0.0859340	-0.0681664	0.3385285	-0.0635115	-0.0585666	0.4001203	-0.0924309	-0.1510627	0.5986930	-0.0443466	-0.1718380	0.6757057	-0.0854017
503	2.0250000	0.0313913	0.0603209	-0.0185472	-0.3066725	0.0624168	0.1187881	-0.2429231	1.3874144	0.0328213	-0.1636502	1.4351068	-0.1034942	-0.2261603	0.3216481	0.2248509	-0.1848684	0.5808381	0.2442028	-0.1050662	0.5978487	-0.0958270	-0.2796696	0.3350723	0.1956237	-0.2184535	0.6831259	0.2514555	-0.2341115	1.0338068	0.0086306	-0.2387021	0.3900807	0.2260860	-0.0292186	0.3387067	-0.1000038	-0.2310231	0.6028661	0.2138499	-0.1466860	1.4040965	0.2634870	-0.1415480	0.5073901	0.1159876	0.0010521	0.4954350	-0.0788334	-0.1382433	0.4889122	0.2065664	0.1790243	0.0789075	-0.1016934	-0.1444804	0.0463704	0.1876529	-0.0332743	0.9800312	0.1831818	-0.2304046	1.0296853	0.1232168	-0.0419408	0.9792926	-0.0433105	-0.0008064	0.5028051	0.0177578	0.0690488	0.1094432	-0.0772604	0.0959830	0.1277073	-0.0000768	-0.2433305	0.0994070	0.1670977	-0.2309983	0.1145250	0.0861282	-0.0689968	0.3372975	-0.0611903	-0.0590852	0.3984896	-0.0908620	-0.1506149	0.5972007	-0.0450783	-0.1708169	0.6744479	-0.0860590
504	2.0350000	0.0262557	0.0591921	-0.0165495	-0.3122856	0.0626674	0.1187780	-0.2426647	1.3865095	0.0316235	-0.1636711	1.4339711	-0.1046016	-0.2310092	0.3221055	0.2246728	-0.1875277	0.5810451	0.2434028	-0.1028211	0.5965818	-0.0959383	-0.2842759	0.3357757	0.1952132	-0.2198460	0.6839377	0.2502622	-0.2329952	1.0325959	0.0071680	-0.2431086	0.3906088	0.2257066	-0.0304889	0.3369418	-0.0979586	-0.2331484	0.6035916	0.2127960	-0.1469134	1.4028235	0.2620014	-0.1445468	0.5067241	0.1156245	0.0021124	0.4937311	-0.0783189	-0.1416837	0.4885838	0.2062304	0.1741569	0.0757249	-0.1003640	-0.1502783	0.0462978	0.1876300	-0.0320454	0.9791664	0.1820420	-0.2290856	1.0284538	0.1217123	-0.0407485	0.9781802	-0.0445326	0.0013261	0.5025976	0.0173979	0.0654412	0.1075449	-0.0745917	0.0920569	0.1243227	0.0023074	-0.2489560	0.0994064	0.1671517	-0.2365040	0.1145661	0.0864136	-0.0699589	0.3364681	-0.0587103	-0.0595145	0.3972415	-0.0890339	-0.1492349	0.5957408	-0.0460016	-0.1685455	0.6729998	-0.0870715
